[img]http://img823.imageshack.us/img823/2816/yogibeard.jpg[/img]
[img]http://img24.imageshack.us/img24/7453/infohr.png[/img]
General
Complete name                    : Yogi.Bear 2010 BRrip Hindi[~HFR~].mkv
Format                           : Matroska
Format version                   : Version 2
File size                        : 367 MiB
Duration                         : 1h 13mn
Overall bit rate                 : 703 Kbps

Video
ID                               : 1
Format                           : AVC
Format/Info                      : Advanced Video Codec
Format profile                   : High@L3.0
Format settings, CABAC           : Yes
Format settings, ReFrames        : 4 frames
Muxing mode                      : Header stripping
Codec ID                         : V_MPEG4/ISO/AVC
Duration                         : 1h 13mn
Bit rate                         : 593 Kbps
Nominal bit rate                 : 559 Kbps
Width                            : 840 pixels
Height                           : 480 pixels
Display aspect ratio             : 16:9
Frame rate                       : 25.000 fps
Original frame rate              : 23.976 fps
Color space                      : YUV
Chroma subsampling               : 4:2:0
Bit depth                        : 8 bits
Scan type                        : Progressive
Bits/(Pixel*Frame)               : 0.059
Stream size                      : 309 MiB (84%)
Title                            : [~HFR~]
Language                         : English

Audio
ID                               : 2
Format                           : MPEG Audio
Format version                   : Version 1
Format profile                   : Layer 3
Mode                             : Joint stereo
Mode extension                   : MS Stereo
Muxing mode                      : Header stripping
Codec ID                         : A_MPEG/L3
Codec ID/Hint                    : MP3
Duration                         : 1h 13mn
Bit rate mode                    : Constant
Bit rate                         : 96.0 Kbps
Channel(s)                       : 2 channels
Sampling rate                    : 44.1 KHz
Compression mode                 : Lossy
Stream size                      : 50.1 MiB (14%)
Title                            : [~HFR~]
Language                         : Hindi


[img]http://img4.imageshack.us/img4/959/plotbi.png[/img]
ellystone Park is celebrating its 100 anniversary, however it may be for the last time, because attendance is down and Mayor Brown wants to close the park and sell the land. If the park is closed, Yogi Bear and Boo Boo will lose their home. They join forces with Ranger Smith to save Jellystone from closing forever. Yogi must really prove in this endeavor that he is "smarter than the average bear".
[img]http://img546.imageshack.us/img546/3949/imdblogoy.png[/img]
[url]http://www.imdb.com/title/tt1302067/[/url]

[img]http://img696.imageshack.us/img696/9545/castec.png[/img]
Director:
Eric Brevig
Writers:
Jeffrey Ventimilia, Joshua Sternin, and 1 more credit »
Stars:
Dan Aykroyd, Justin Timberlake and Anna Faris 
[img]http://img846.imageshack.us/img846/4092/boxx.jpg[/img]
Budget:
$80,000,000 (estimated)
Opening Weekend:
$16,411,322 (USA) (19 December 2010) (3515 Screens)
Gross:
$100,169,068 (USA) (3 April 2011) 
[img]http://img31.imageshack.us/img31/640/screendta.png[/img]
[img]http://img813.imageshack.us/img813/1039/vlcsnap2011092316h41m47.png[/img]
[img]http://img855.imageshack.us/img855/8311/vlcsnap2011092316h42m02.png[/img]
[img]http://img26.imageshack.us/img26/4133/vlcsnap2011092316h42m06.png[/img]
[img]http://img40.imageshack.us/img40/8500/vlcsnap2011092316h42m33.png[/img]
[img]http://img535.imageshack.us/img535/1051/yogibear2010brriphindih.jpg[/img]

[img]http://img14.imageshack.us/img14/6105/hiee.gif[/img]
[img]http://img98.imageshack.us/img98/4050/seedv.gif[/img]
[img]http://img855.imageshack.us/img855/6715/91555204.png[/img]